REM DIRINDEX 1\3,1\2\4,1\2\5,1\2\6
REM DIRNAME cjc137,folder01,folder02,folder03,folder04,folder05
TITLE ""
FILE "114.mp3" MP3
  TRACK 01 AUDIO
    TITLE "4:cjc137_4707"
    INDEX 01 00:00:00
  TRACK 02 AUDIO
    TITLE "0:"
    INDEX 01 00:01:28
  TRACK 03 AUDIO
    TITLE "6:cjc137_4708"
    INDEX 01 00:01:36
  TRACK 04 AUDIO
    TITLE "0:"
    INDEX 01 00:02:67
  TRACK 05 AUDIO
    TITLE "5:cjc137_4709"
    INDEX 01 00:02:73
  TRACK 06 AUDIO
    TITLE "0:"
    INDEX 01 00:04:23
  TRACK 07 AUDIO
    TITLE "4:cjc137_4710"
    INDEX 01 00:05:34
  TRACK 08 AUDIO
    TITLE "0:"
    INDEX 01 00:06:55
  TRACK 09 AUDIO
    TITLE "6:cjc137_4711"
    INDEX 01 00:06:63
  TRACK 10 AUDIO
    TITLE "0:"
    INDEX 01 00:08:15
  TRACK 11 AUDIO
    TITLE "5:cjc137_4712"
    INDEX 01 00:08:24
  TRACK 12 AUDIO
    TITLE "0:"
    INDEX 01 00:09:45
  TRACK 13 AUDIO
    TITLE "4:cjc137_4713"
    INDEX 01 00:10:55
  TRACK 14 AUDIO
    TITLE "0:"
    INDEX 01 00:11:58
  TRACK 15 AUDIO
    TITLE "6:cjc137_4714"
    INDEX 01 00:11:64
  TRACK 16 AUDIO
    TITLE "0:"
    INDEX 01 00:12:65
  TRACK 17 AUDIO
    TITLE "5:cjc137_4715"
    INDEX 01 00:12:71
  TRACK 18 AUDIO
    TITLE "0:"
    INDEX 01 00:13:71
  TRACK 19 AUDIO
    TITLE "4:cjc137_4716"
    INDEX 01 00:15:07
  TRACK 20 AUDIO
    TITLE "0:"
    INDEX 01 00:16:26
  TRACK 21 AUDIO
    TITLE "6:cjc137_4717"
    INDEX 01 00:16:34
  TRACK 22 AUDIO
    TITLE "0:"
    INDEX 01 00:17:51
  TRACK 23 AUDIO
    TITLE "5:cjc137_4718"
    INDEX 01 00:17:55
  TRACK 24 AUDIO
    TITLE "0:"
    INDEX 01 00:18:74
  TRACK 25 AUDIO
    TITLE "4:cjc137_4719"
    INDEX 01 00:20:08
  TRACK 26 AUDIO
    TITLE "0:"
    INDEX 01 00:21:15
  TRACK 27 AUDIO
    TITLE "6:cjc137_4720"
    INDEX 01 00:21:19
  TRACK 28 AUDIO
    TITLE "0:"
    INDEX 01 00:22:13
  TRACK 29 AUDIO
    TITLE "5:cjc137_4721"
    INDEX 01 00:22:21
  TRACK 30 AUDIO
    TITLE "0:"
    INDEX 01 00:23:28
  TRACK 31 AUDIO
    TITLE "4:cjc137_4722"
    INDEX 01 00:24:35
  TRACK 32 AUDIO
    TITLE "0:"
    INDEX 01 00:25:41
  TRACK 33 AUDIO
    TITLE "6:cjc137_4723"
    INDEX 01 00:25:48
  TRACK 34 AUDIO
    TITLE "0:"
    INDEX 01 00:26:40
  TRACK 35 AUDIO
    TITLE "5:cjc137_4724"
    INDEX 01 00:26:44
  TRACK 36 AUDIO
    TITLE "0:"
    INDEX 01 00:27:51
  TRACK 37 AUDIO
    TITLE "4:cjc137_4725"
    INDEX 01 00:28:59
  TRACK 38 AUDIO
    TITLE "0:"
    INDEX 01 00:29:72
  TRACK 39 AUDIO
    TITLE "6:cjc137_4726"
    INDEX 01 00:30:05
  TRACK 40 AUDIO
    TITLE "0:"
    INDEX 01 00:31:10
  TRACK 41 AUDIO
    TITLE "5:cjc137_4727"
    INDEX 01 00:31:18
  TRACK 42 AUDIO
    TITLE "0:"
    INDEX 01 00:32:31
  TRACK 43 AUDIO
    TITLE "4:cjc137_4728"
    INDEX 01 00:33:40
  TRACK 44 AUDIO
    TITLE "0:"
    INDEX 01 00:34:45
  TRACK 45 AUDIO
    TITLE "6:cjc137_4729"
    INDEX 01 00:34:49
  TRACK 46 AUDIO
    TITLE "0:"
    INDEX 01 00:35:43
  TRACK 47 AUDIO
    TITLE "5:cjc137_4730"
    INDEX 01 00:35:47
  TRACK 48 AUDIO
    TITLE "0:"
    INDEX 01 00:36:52
  TRACK 49 AUDIO
    TITLE "4:cjc137_4731"
    INDEX 01 00:37:59
  TRACK 50 AUDIO
    TITLE "0:"
    INDEX 01 00:39:19
  TRACK 51 AUDIO
    TITLE "6:cjc137_4732"
    INDEX 01 00:39:27
  TRACK 52 AUDIO
    TITLE "0:"
    INDEX 01 00:40:26
  TRACK 53 AUDIO
    TITLE "5:cjc137_4733"
    INDEX 01 00:40:30
  TRACK 54 AUDIO
    TITLE "0:"
    INDEX 01 00:41:65
  TRACK 55 AUDIO
    TITLE "4:cjc137_4734"
    INDEX 01 00:42:74
  TRACK 56 AUDIO
    TITLE "0:"
    INDEX 01 00:44:05
  TRACK 57 AUDIO
    TITLE "6:cjc137_4735"
    INDEX 01 00:44:22
  TRACK 58 AUDIO
    TITLE "0:"
    INDEX 01 00:45:10
  TRACK 59 AUDIO
    TITLE "5:cjc137_4736"
    INDEX 01 00:45:16
  TRACK 60 AUDIO
    TITLE "0:"
    INDEX 01 00:46:23
  TRACK 61 AUDIO
    TITLE "4:cjc137_4737"
    INDEX 01 00:47:42
  TRACK 62 AUDIO
    TITLE "0:"
    INDEX 01 00:48:71
  TRACK 63 AUDIO
    TITLE "6:cjc137_4738"
    INDEX 01 00:49:00
  TRACK 64 AUDIO
    TITLE "0:"
    INDEX 01 00:50:27
  TRACK 65 AUDIO
    TITLE "5:cjc137_4739"
    INDEX 01 00:50:35
  TRACK 66 AUDIO
    TITLE "0:"
    INDEX 01 00:51:63
  TRACK 67 AUDIO
    TITLE "4:cjc137_4740"
    INDEX 01 00:52:71
  TRACK 68 AUDIO
    TITLE "0:"
    INDEX 01 00:54:05
  TRACK 69 AUDIO
    TITLE "6:cjc137_4741"
    INDEX 01 00:54:17
  TRACK 70 AUDIO
    TITLE "0:"
    INDEX 01 00:55:24
  TRACK 71 AUDIO
    TITLE "5:cjc137_4742"
    INDEX 01 00:55:28
  TRACK 72 AUDIO
    TITLE "0:"
    INDEX 01 00:56:39
  TRACK 73 AUDIO
    TITLE "4:cjc137_4743"
    INDEX 01 00:57:52
  TRACK 74 AUDIO
    TITLE "0:"
    INDEX 01 00:58:73
  TRACK 75 AUDIO
    TITLE "6:cjc137_4744"
    INDEX 01 00:59:02
  TRACK 76 AUDIO
    TITLE "0:"
    INDEX 01 01:00:02
  TRACK 77 AUDIO
    TITLE "5:cjc137_4745"
    INDEX 01 01:00:08
  TRACK 78 AUDIO
    TITLE "0:"
    INDEX 01 01:01:27
  TRACK 79 AUDIO
    TITLE "4:cjc137_4746"
    INDEX 01 01:02:36
  TRACK 80 AUDIO
    TITLE "0:"
    INDEX 01 01:03:57
  TRACK 81 AUDIO
    TITLE "6:cjc137_4747"
    INDEX 01 01:03:61
  TRACK 82 AUDIO
    TITLE "0:"
    INDEX 01 01:05:36
  TRACK 83 AUDIO
    TITLE "5:cjc137_4748"
    INDEX 01 01:05:40
  TRACK 84 AUDIO
    TITLE "0:"
    INDEX 01 01:06:61
